<?xml version="1.0" encoding="utf-8"?>
<!-- Generator: Adobe Illustrator 25.4.0, SVG Export Plug-In . SVG Version: 6.00 Build 0)  -->
<svg version="1.1" id="Layer_1" xmlns="http://www.w3.org/2000/svg" xmlns:xlink="http://www.w3.org/1999/xlink" x="0px" y="0px"
	 viewBox="0 0 90.92 23.82" style="enable-background:new 0 0 90.92 23.82;" xml:space="preserve">
<style type="text/css">
	.st0{fill:url(#SVGID_1_);}
</style>
<linearGradient id="SVGID_1_" gradientUnits="userSpaceOnUse" x1="1.3055" y1="-2.5109" x2="84.7479" y2="24.8954">
	<stop  offset="0" style="stop-color:#6FC8E2"/>
	<stop  offset="1" style="stop-color:#284999"/>
</linearGradient>
<path class="st0" d="M69.97,9.78v5.07h19.97c0.54,0,0.98,0.44,0.98,0.98c0,0.54-0.44,0.98-0.98,0.98H69.17
	c-0.04,0-0.08-0.01-0.11-0.01c-0.03,0-0.07,0.01-0.1,0.01c-0.56,0-1.02-0.5-1.02-1.12V1.52c0-0.47,0.27-0.88,0.65-1.04
	c0.16-0.12,0.37-0.2,0.59-0.2h20.77c0.54,0,0.98,0.44,0.98,0.98s-0.44,0.98-0.98,0.98H69.97v5.56h19.97c0.54,0,0.98,0.44,0.98,0.98
	s-0.44,0.98-0.98,0.98H69.97z M89.94,21.85H69.17c-0.54,0-0.98,0.44-0.98,0.98s0.44,0.98,0.98,0.98h20.77
	c0.54,0,0.98-0.44,0.98-0.98S90.48,21.85,89.94,21.85z M23.49,1.11v21.61c0,0.54-0.44,0.98-0.98,0.98H0.98
	C0.44,23.7,0,23.26,0,22.72V1.11c0-0.4,0.24-0.76,0.61-0.91C0.98,0.04,1.4,0.13,1.68,0.41l10.06,10.06L21.81,0.41
	c0.28-0.28,0.71-0.37,1.07-0.21C23.25,0.35,23.49,0.71,23.49,1.11z M21.52,3.48l-9.08,9.08c-0.38,0.38-1.01,0.38-1.39,0L1.97,3.48
	v18.25h19.55V3.48z M27.46,0c-0.56,0-1.02,0.46-1.02,1.02V22.8c0,0.56,0.46,1.02,1.02,1.02s1.02-0.46,1.02-1.02V1.02
	C28.48,0.46,28.02,0,27.46,0z M61.73,0c-0.56,0-1.02,0.46-1.02,1.02V22.8c0,0.56,0.46,1.02,1.02,1.02c0.56,0,1.02-0.46,1.02-1.02
	V1.02C62.75,0.46,62.29,0,61.73,0z M56.34,0H34.96c-0.56,0-1.02,0.46-1.02,1.02s0.46,1.02,1.02,1.02h20.36v17.97l-8.75-8.81
	c-0.39-0.4-1.04-0.4-1.44-0.01L34.33,21.75c-0.4,0.39-0.41,1.04-0.02,1.44c0.39,0.4,1.04,0.41,1.44,0.02l10.09-9.86l9.78,9.85
	c0.2,0.2,0.46,0.3,0.72,0.3c0.13,0,0.26-0.03,0.39-0.08c0.38-0.16,0.63-0.53,0.63-0.94V1.02C57.36,0.46,56.9,0,56.34,0z"/>
</svg>
