<?xml version="1.0" encoding="utf-8"?>
<!-- Generator: Adobe Illustrator 25.4.0, SVG Export Plug-In . SVG Version: 6.00 Build 0)  -->
<svg version="1.1" id="Layer_1" xmlns="http://www.w3.org/2000/svg" xmlns:xlink="http://www.w3.org/1999/xlink" x="0px" y="0px"
	 viewBox="0 0 26.25 26.25" style="enable-background:new 0 0 26.25 26.25;" xml:space="preserve">
<style type="text/css">
	.st0{fill:url(#SVGID_1_);}
</style>
<g>
	<linearGradient id="SVGID_1_" gradientUnits="userSpaceOnUse" x1="21.8087" y1="28.1842" x2="6.5489" y2="1.7533">
		<stop  offset="0" style="stop-color:#284999"/>
		<stop  offset="0.1063" style="stop-color:#294F9E"/>
		<stop  offset="0.2912" style="stop-color:#2D61AA"/>
		<stop  offset="0.5326" style="stop-color:#3980BD"/>
		<stop  offset="0.8181" style="stop-color:#56AAD4"/>
		<stop  offset="1" style="stop-color:#6FC8E2"/>
	</linearGradient>
	<path class="st0" d="M24.78,26.25c-0.15,0-0.31-0.02-0.46-0.07l-4.29-1.37c-0.38-0.12-0.79-0.09-1.17,0.1
		c-1.93,0.95-4.1,1.4-6.27,1.32C5.87,25.96,0.35,20.49,0.02,13.77c-0.18-3.66,1.12-7.13,3.66-9.76C6.21,1.38,9.63-0.04,13.28,0
		c7,0.09,12.81,5.85,12.94,12.85c0.04,2.21-0.48,4.41-1.5,6.36c-0.19,0.37-0.21,0.82-0.05,1.23l1.48,3.78
		c0.21,0.54,0.09,1.13-0.3,1.55C25.56,26.08,25.18,26.25,24.78,26.25z M19.58,23.39c0.29,0,0.58,0.04,0.86,0.13l4.29,1.37
		c0.06,0.02,0.11,0.01,0.15-0.04c0.04-0.04,0.05-0.09,0.03-0.15l-1.48-3.78c-0.3-0.77-0.26-1.63,0.11-2.34
		c0.92-1.75,1.39-3.72,1.35-5.71C24.77,6.59,19.55,1.41,13.26,1.34C9.98,1.3,6.91,2.57,4.63,4.94c-2.28,2.36-3.44,5.48-3.28,8.77
		c0.3,6.03,5.26,10.94,11.3,11.17c1.95,0.07,3.89-0.33,5.63-1.18C18.69,23.5,19.13,23.39,19.58,23.39z"/>
</g>
</svg>
