<?xml version="1.0" encoding="utf-8"?>
<!-- Generator: Adobe Illustrator 25.3.0, SVG Export Plug-In . SVG Version: 6.00 Build 0)  -->
<svg version="1.1" id="Layer_1" xmlns="http://www.w3.org/2000/svg" xmlns:xlink="http://www.w3.org/1999/xlink" x="0px" y="0px"
	 viewBox="0 0 18.27 18.27" style="enable-background:new 0 0 18.27 18.27;" xml:space="preserve">
<style type="text/css">
	.st0{fill:url(#SVGID_1_);}
</style>
<g>
	<linearGradient id="SVGID_1_" gradientUnits="userSpaceOnUse" x1="0" y1="9.1357" x2="18.2743" y2="9.1357">
		<stop  offset="3.455292e-03" style="stop-color:#E94275"/>
		<stop  offset="0.881" style="stop-color:#EC6622"/>
	</linearGradient>
	<path class="st0" d="M17.25,18.27c-0.11,0-0.21-0.02-0.32-0.05l-2.98-0.96c-0.26-0.08-0.55-0.06-0.82,0.07
		c-1.35,0.66-2.85,0.98-4.36,0.92c-4.68-0.18-8.53-3.99-8.76-8.66c-0.13-2.55,0.78-4.96,2.54-6.79C4.32,0.96,6.7-0.03,9.25,0
		c4.87,0.06,8.92,4.07,9.01,8.95c0.03,1.54-0.33,3.07-1.05,4.43c-0.14,0.26-0.15,0.57-0.04,0.86l1.03,2.63
		c0.15,0.37,0.07,0.79-0.21,1.08C17.79,18.16,17.53,18.27,17.25,18.27z M13.63,16.29c0.2,0,0.41,0.03,0.6,0.09l2.98,0.96
		c0.04,0.01,0.07,0,0.1-0.03c0.03-0.03,0.04-0.07,0.02-0.1l-1.03-2.63c-0.21-0.54-0.18-1.13,0.08-1.63
		c0.64-1.22,0.97-2.59,0.94-3.98c-0.08-4.38-3.72-7.98-8.09-8.04C6.95,0.9,4.81,1.79,3.23,3.44c-1.59,1.65-2.4,3.81-2.29,6.1
		c0.21,4.2,3.66,7.62,7.86,7.78c1.35,0.05,2.71-0.23,3.92-0.82C13.01,16.36,13.32,16.29,13.63,16.29z"/>
</g>
</svg>
