<?xml version="1.0" encoding="utf-8"?>
<!-- Generator: Adobe Illustrator 25.3.0, SVG Export Plug-In . SVG Version: 6.00 Build 0)  -->
<svg version="1.1" id="Layer_1" xmlns="http://www.w3.org/2000/svg" xmlns:xlink="http://www.w3.org/1999/xlink" x="0px" y="0px"
	 viewBox="0 0 20.61 17.86" style="enable-background:new 0 0 20.61 17.86;" xml:space="preserve">
<style type="text/css">
	.st0{fill:url(#SVGID_1_);}
	.st1{fill:url(#SVGID_2_);}
</style>
<g>
	<g>
		<linearGradient id="SVGID_1_" gradientUnits="userSpaceOnUse" x1="0" y1="8.929" x2="20.6112" y2="8.929">
			<stop  offset="3.455292e-03" style="stop-color:#E94275"/>
			<stop  offset="0.881" style="stop-color:#EC6622"/>
		</linearGradient>
		<path class="st0" d="M18.61,17.86H2.04C0.91,17.86,0,16.94,0,15.82V4.37c0-1.12,0.91-2.04,2.04-2.04h1.82
			c0.55,0,1.06-0.35,1.26-0.86C5.46,0.59,6.32,0,7.26,0h6.1c0.94,0,1.8,0.59,2.14,1.47c0.2,0.52,0.7,0.86,1.26,0.86h1.82
			c1.12,0,2.04,0.91,2.04,2.04v11.48C20.61,16.96,19.71,17.86,18.61,17.86z M2.04,3.29c-0.6,0-1.08,0.49-1.08,1.08v11.45
			c0,0.6,0.49,1.08,1.08,1.08h16.57c0.58,0,1.05-0.47,1.05-1.05V4.37c0-0.6-0.49-1.08-1.08-1.08h-1.82c-0.94,0-1.81-0.59-2.15-1.47
			c-0.2-0.51-0.7-0.86-1.25-0.86h-6.1c-0.55,0-1.05,0.34-1.25,0.86c-0.34,0.88-1.2,1.47-2.15,1.47H2.04z"/>
	</g>
	<g>
		<linearGradient id="SVGID_2_" gradientUnits="userSpaceOnUse" x1="5.5195" y1="9.5458" x2="15.0915" y2="9.5458">
			<stop  offset="3.455292e-03" style="stop-color:#E94275"/>
			<stop  offset="0.881" style="stop-color:#EC6622"/>
		</linearGradient>
		<path class="st1" d="M10.31,14.33c-2.64,0-4.79-2.15-4.79-4.79c0-2.64,2.15-4.79,4.79-4.79c2.64,0,4.79,2.15,4.79,4.79
			C15.09,12.18,12.94,14.33,10.31,14.33z M10.31,5.71c-2.11,0-3.83,1.72-3.83,3.83c0,2.11,1.72,3.83,3.83,3.83
			c2.11,0,3.83-1.72,3.83-3.83C14.14,7.43,12.42,5.71,10.31,5.71z"/>
	</g>
</g>
</svg>
