<?xml version="1.0" encoding="utf-8"?>
<!-- Generator: Adobe Illustrator 25.3.0, SVG Export Plug-In . SVG Version: 6.00 Build 0)  -->
<svg version="1.1" id="Layer_1" xmlns="http://www.w3.org/2000/svg" xmlns:xlink="http://www.w3.org/1999/xlink" x="0px" y="0px"
	 viewBox="0 0 15.76 20.32" style="enable-background:new 0 0 15.76 20.32;" xml:space="preserve">
<style type="text/css">
	.st0{fill:url(#SVGID_1_);}
	.st1{fill:url(#SVGID_2_);}
</style>
<g>
	<g>
		<linearGradient id="SVGID_1_" gradientUnits="userSpaceOnUse" x1="0" y1="10.1617" x2="15.7559" y2="10.1617">
			<stop  offset="3.455292e-03" style="stop-color:#E94275"/>
			<stop  offset="0.881" style="stop-color:#EC6622"/>
		</linearGradient>
		<path class="st0" d="M7.88,20.32c-0.6,0-1.16-0.27-1.54-0.75C3.97,16.55,0,11.02,0,7.88C0,3.53,3.53,0,7.88,0
			c4.34,0,7.88,3.53,7.88,7.88c0,3.14-3.97,8.68-6.34,11.7C9.04,20.05,8.48,20.32,7.88,20.32z M7.88,0.93
			c-3.83,0-6.95,3.12-6.95,6.95c0,2.97,4.3,8.77,6.14,11.12c0.2,0.25,0.49,0.39,0.81,0.39c0.32,0,0.61-0.14,0.81-0.39
			c1.85-2.36,6.14-8.15,6.14-11.12C14.83,4.05,11.71,0.93,7.88,0.93z"/>
	</g>
	<g>
		<linearGradient id="SVGID_2_" gradientUnits="userSpaceOnUse" x1="3.8985" y1="7.3371" x2="11.8574" y2="7.3371">
			<stop  offset="3.455292e-03" style="stop-color:#E94275"/>
			<stop  offset="0.881" style="stop-color:#EC6622"/>
		</linearGradient>
		<path class="st1" d="M7.88,11.32c-2.19,0-3.98-1.79-3.98-3.98c0-2.19,1.79-3.98,3.98-3.98c2.19,0,3.98,1.79,3.98,3.98
			C11.86,9.53,10.07,11.32,7.88,11.32z M7.88,4.29c-1.68,0-3.05,1.37-3.05,3.05c0,1.68,1.37,3.05,3.05,3.05
			c1.68,0,3.05-1.37,3.05-3.05C10.93,5.66,9.56,4.29,7.88,4.29z"/>
	</g>
</g>
</svg>
