<?xml version="1.0" encoding="utf-8"?>
<!-- Generator: Adobe Illustrator 25.3.0, SVG Export Plug-In . SVG Version: 6.00 Build 0)  -->
<svg version="1.1" id="Layer_1" xmlns="http://www.w3.org/2000/svg" xmlns:xlink="http://www.w3.org/1999/xlink" x="0px" y="0px"
	 viewBox="0 0 7.36 9.49" style="enable-background:new 0 0 7.36 9.49;" xml:space="preserve">
<style type="text/css">
	.st0{fill:#B6B6B5;}
	.st1{fill:#FFFFFF;}
</style>
<g>
	<path class="st0" d="M3.68,9.49c-0.28,0-0.54-0.13-0.72-0.35C1.85,7.73,0,5.14,0,3.68C0,1.65,1.65,0,3.68,0
		c2.03,0,3.68,1.65,3.68,3.68c0,1.47-1.85,4.05-2.96,5.46C4.22,9.36,3.96,9.49,3.68,9.49z"/>
	<path class="st1" d="M3.68,5.28c-1.02,0-1.86-0.83-1.86-1.86c0-1.02,0.83-1.86,1.86-1.86c1.02,0,1.86,0.83,1.86,1.86
		C5.54,4.45,4.7,5.28,3.68,5.28z"/>
</g>
</svg>
